<?xml version="1.0" standalone="no"?>
<!DOCTYPE svg PUBLIC "-//W3C//DTD SVG 20010904//EN"
 "http://www.w3.org/TR/2001/REC-SVG-20010904/DTD/svg10.dtd">
<svg version="1.0" xmlns="http://www.w3.org/2000/svg"
 width="489.000000pt" height="357.000000pt" viewBox="0 0 489.000000 357.000000"
 preserveAspectRatio="xMidYMid meet">
<metadata>
Created by potrace 1.15, written by Peter Selinger 2001-2017
</metadata>
<g transform="translate(0.000000,357.000000) scale(0.100000,-0.100000)"
fill="#000000" stroke="none">
<path d="M1 2553 l0 -1018 47 95 c26 52 65 125 86 162 l37 67 -40 39 c-34 32
-41 46 -41 76 0 33 10 48 76 119 87 93 117 123 157 154 l28 22 -25 38 c-31 45
-33 81 -7 115 11 14 74 57 140 97 67 39 121 73 121 75 0 2 -7 23 -15 46 -35
99 -18 114 252 215 l213 80 0 55 c1 106 29 117 285 121 83 1 183 4 224 8 l74
6 16 47 c21 61 47 88 84 88 17 0 114 -27 216 -59 184 -59 463 -145 633 -196
89 -26 128 -56 128 -94 0 -10 -61 -201 -135 -427 -74 -225 -185 -560 -245
-745 -112 -341 -124 -367 -176 -383 -18 -5 -225 52 -258 72 -5 3 -6 0 -3 -5 4
-6 -5 -19 -21 -30 -19 -12 -27 -27 -28 -48 -11 -369 -16 -518 -20 -554 -6 -54
-27 -96 -51 -106 -17 -6 -201 -6 -273 0 -19 2 -87 6 -150 10 -830 43 -1142 65
-1167 81 -45 29 -46 40 -33 313 7 141 14 259 16 263 3 4 -29 24 -71 46 l-75
39 0 -718 0 -719 2445 0 2445 0 0 933 -1 932 -70 -210 c-38 -115 -110 -349
-160 -520 -49 -171 -115 -395 -145 -500 -74 -254 -82 -276 -106 -302 -33 -35
-110 -24 -302 42 -177 62 -321 108 -556 180 -181 55 -211 67 -259 112 -20 18
-37 28 -39 23 -7 -19 -30 -10 -41 17 -12 31 1 83 74 278 20 55 42 118 50 140
7 22 35 103 63 180 27 77 109 309 181 515 72 206 137 386 144 400 7 14 26 32
44 41 17 8 45 27 63 42 23 19 43 27 72 27 57 0 905 -309 960 -350 l28 -21 0
806 0 805 -2445 0 -2445 0 1 -1017z"/>
<path d="M1723 3148 c-6 -7 -38 -93 -72 -190 -153 -440 -221 -642 -213 -633 4
6 34 45 66 87 135 181 364 349 564 414 72 24 104 29 187 29 109 0 136 -9 189
-62 34 -34 47 -63 55 -123 l7 -45 43 128 c35 103 41 131 31 142 -7 8 -65 31
-129 51 -64 19 -245 76 -402 125 -158 49 -293 89 -302 89 -8 0 -19 -6 -24 -12z"/>
<path d="M915 2793 c-60 -24 -141 -56 -180 -71 -51 -20 -71 -32 -73 -47 -1
-11 63 -193 142 -405 l145 -385 1 102 c0 157 34 355 75 436 12 24 15 71 15
224 0 106 -3 192 -7 192 -5 -1 -57 -21 -118 -46z"/>
<path d="M595 2501 c-3 -5 -43 -33 -89 -61 -47 -29 -87 -59 -91 -68 -3 -9 22
-61 64 -131 95 -160 371 -606 371 -600 0 2 -9 47 -20 99 -11 52 -20 131 -20
174 0 74 -5 92 -89 320 -49 133 -93 249 -96 259 -8 19 -21 22 -30 8z"/>
<path d="M1670 2374 c-63 -74 -115 -140 -115 -146 0 -9 123 -58 145 -58 7 0
243 276 248 290 3 9 -113 50 -142 50 -14 0 -58 -43 -136 -136z"/>
<path d="M2186 2285 c-76 -91 -144 -165 -151 -165 -7 0 -32 7 -56 15 -29 11
-45 12 -47 5 -5 -15 -153 -190 -160 -190 -4 0 -52 15 -108 33 -82 26 -100 30
-97 17 4 -14 177 -80 210 -80 7 0 47 43 90 95 68 84 81 95 103 90 93 -20 73
-33 226 149 129 154 158 196 137 196 -5 0 -71 -74 -147 -165z"/>
<path d="M2355 2259 c-64 -94 -201 -229 -311 -307 -341 -243 -669 -239 -712 8
l-8 45 -43 -122 c-33 -93 -40 -125 -33 -140 13 -23 806 -286 849 -281 27 3 31
11 106 238 111 339 205 630 203 630 -1 0 -24 -32 -51 -71z"/>
<path d="M3922 2213 c-12 -11 -45 -92 -85 -213 -145 -436 -322 -953 -367
-1076 -61 -164 -64 -175 -48 -196 14 -19 814 -298 854 -298 13 0 30 9 38 23
15 22 171 481 374 1097 96 291 109 338 98 355 -8 11 -47 33 -87 49 -70 27
-750 276 -755 276 -1 0 -11 -8 -22 -17z m348 -785 l0 -41 39 44 c37 42 41 44
96 44 52 0 59 -3 90 -37 45 -49 55 -109 27 -171 -25 -57 -60 -80 -134 -87 -61
-6 -88 2 -88 25 0 8 -6 27 -12 42 l-13 27 -5 -44 c-6 -56 -30 -64 -71 -24 -16
15 -29 24 -29 19 0 -4 -9 0 -20 10 -11 10 -20 28 -20 39 0 12 -9 35 -20 51
l-20 30 0 -87 0 -88 -34 0 -33 0 1 143 1 142 29 3 c19 2 32 -3 41 -16 8 -10
33 -43 57 -73 l43 -54 5 70 c5 64 7 70 30 76 35 8 40 3 40 -43z m-442 -58 c3
-105 15 -130 63 -130 24 0 30 6 38 38 6 20 11 72 11 115 l0 77 35 0 35 0 0
-101 c0 -158 -32 -199 -158 -199 -80 0 -75 -9 -88 167 -8 120 -4 136 33 131
l28 -3 3 -95z"/>
<path d="M4359 1401 c-19 -15 -24 -29 -24 -64 0 -56 25 -87 70 -87 44 0 57 20
57 82 0 42 -4 56 -22 70 -29 23 -52 23 -81 -1z"/>
<path d="M350 2172 c-13 -20 -53 -68 -87 -107 -35 -38 -63 -75 -63 -80 0 -6
27 -37 60 -70 l60 -59 23 22 c17 18 18 22 4 16 -23 -8 -97 67 -97 100 0 28 43
71 64 63 9 -4 16 -13 16 -22 0 -8 7 -15 15 -15 22 0 48 -46 42 -76 -3 -18 -1
-22 6 -15 15 15 27 14 27 -2 0 -16 -53 -69 -66 -66 -27 5 -24 -5 16 -46 24
-24 47 -42 52 -39 5 3 7 1 6 -4 -3 -10 103 -109 110 -104 2 2 7 0 10 -4 4 -4
0 -4 -8 0 -8 4 1 -6 20 -22 19 -17 37 -30 40 -30 22 2 30 -5 28 -19 -2 -10 3
-17 10 -15 6 1 12 -5 12 -13 0 -9 10 -20 23 -25 12 -5 18 -9 14 -9 -5 -1 -2
-7 5 -13 8 -7 38 -35 68 -63 39 -37 48 -42 33 -20 -38 57 -62 111 -81 191 -10
44 -26 93 -35 109 -34 66 -285 469 -293 472 -5 2 -20 -14 -34 -35z"/>
<path d="M200 1764 c-11 -25 -20 -49 -20 -52 0 -4 -18 -48 -41 -99 -23 -51
-39 -99 -35 -108 3 -8 178 -101 388 -205 211 -105 384 -190 384 -190 1 0 -28
30 -65 68 -78 79 -163 190 -191 249 -13 29 -77 95 -202 212 -101 94 -187 171
-191 171 -4 0 -17 -21 -27 -46z"/>
<path d="M1360 1420 c-85 -4 -173 -8 -196 -9 l-40 -1 28 -60 c23 -46 34 -60
51 -60 12 0 101 31 197 70 96 38 162 69 145 68 -16 -1 -100 -5 -185 -8z"/>
<path d="M1400 1269 c-164 -68 -202 -80 -238 -76 l-42 5 33 -47 c18 -25 41
-47 51 -49 12 -3 364 210 405 244 14 12 -35 -6 -209 -77z"/>
<path d="M216 1103 c-5 -179 -4 -229 6 -239 9 -10 119 -19 393 -33 209 -12
407 -23 440 -26 l60 -5 -65 23 c-162 58 -309 150 -442 276 -72 68 -103 88
-234 154 l-151 76 -7 -226z"/>
<path d="M1674 1133 c-25 -54 -58 -127 -74 -163 -15 -36 -41 -92 -58 -124 -18
-32 -32 -60 -32 -62 0 -11 177 -3 188 8 8 8 12 48 13 107 0 53 4 149 7 214 4
64 6 117 5 117 -2 0 -24 -44 -49 -97z"/>
</g>
</svg>
